<svg width="251" height="212" viewBox="0 0 251 212" fill="none" xmlns="http://www.w3.org/2000/svg">
<g id="Character">
<path id="Vector" d="M139.859 26.5248C139.859 26.5248 162.871 26.7754 166.359 30.7013C169.846 34.6272 166.613 48.6915 166.613 48.6915C170.421 55.4633 173.128 62.7808 174.637 70.3779C176.884 82.4479 171.627 94.5284 171.627 94.5284C171.627 94.5284 169.38 105.606 167.133 110.535C164.885 115.463 148.625 115.223 138.863 113.49C129.101 111.756 133.118 95.0191 133.871 82.6985C134.623 70.3779 131.613 36.6319 131.613 33.4265C131.613 30.221 133.871 29.0098 139.859 26.5248Z" fill="white"/>
<g id="Clip path group">
<mask id="mask0_31_888" style="mask-type:luminance" maskUnits="userSpaceOnUse" x="131" y="26" width="45" height="89">
<g id="clip-path-2">
<path id="Vector_2" d="M139.859 26.5248C139.859 26.5248 162.871 26.7754 166.359 30.7013C169.846 34.6272 166.613 48.6915 166.613 48.6915C170.421 55.4633 173.128 62.7808 174.637 70.3779C176.884 82.4479 171.627 94.5284 171.627 94.5284C171.627 94.5284 169.38 105.606 167.133 110.535C164.885 115.463 148.625 115.223 138.863 113.49C129.101 111.756 133.118 95.0191 133.871 82.6985C134.623 70.3779 131.613 36.6319 131.613 33.4265C131.613 30.221 133.871 29.0098 139.859 26.5248Z" fill="white"/>
</g>
</mask>
<g mask="url(#mask0_31_888)">
<g id="Group">
<path id="Vector_3" opacity="0.1" d="M139.859 26.5248C139.859 26.5248 162.871 26.7754 166.359 30.7013C169.846 34.6272 166.613 48.6915 166.613 48.6915C170.421 55.4633 173.128 62.7808 174.637 70.3779C176.884 82.4479 171.627 94.5284 171.627 94.5284C171.627 94.5284 169.38 105.606 167.133 110.535C164.885 115.463 148.625 115.223 138.863 113.49C129.101 111.756 133.118 95.0191 133.871 82.6985C134.623 70.3779 131.613 36.6319 131.613 33.4265C131.613 30.221 133.871 29.0098 139.859 26.5248Z" fill="#141414"/>
</g>
</g>
</g>
<path id="Vector_4" d="M139.859 26.5248C139.859 26.5248 162.871 26.7754 166.359 30.7013C169.846 34.6272 166.613 48.6915 166.613 48.6915C170.421 55.4633 173.128 62.7808 174.637 70.3779C176.884 82.4479 171.627 94.5284 171.627 94.5284C171.627 94.5284 169.38 105.606 167.133 110.535C164.885 115.463 148.625 115.223 138.863 113.49C129.101 111.756 133.118 95.0191 133.871 82.6985C134.623 70.3779 131.613 36.6319 131.613 33.4265C131.613 30.221 133.871 29.0098 139.859 26.5248Z" stroke="#263238" stroke-width="1.30949" stroke-linecap="round" stroke-linejoin="round"/>
<path id="Vector_5" d="M166.635 48.7228C166.635 48.7228 153.374 52.8993 143.623 54.1418L143.368 49.7043C143.368 49.7043 163.624 47.9815 167.133 45.0266L166.635 48.7228Z" fill="#263238" stroke="#263238" stroke-width="1.30949" stroke-linecap="round" stroke-linejoin="round"/>
<path id="Vector_6" d="M171.659 94.5493C171.659 94.5493 156.162 97.9949 150.65 97.5041L150.152 101.681C150.152 101.681 165.415 101.43 170.917 98.9659L171.659 94.5493Z" fill="#263238" stroke="#263238" stroke-width="1.30949" stroke-linecap="round" stroke-linejoin="round"/>
<path id="Vector_7" d="M108.06 109.574C108.06 109.574 73.5475 106.619 65.2903 109.574C57.0331 112.529 55.7505 122.636 55.7505 129.527C55.7505 136.418 50.4507 167.22 49.9949 168.452C49.5391 169.684 43.9954 180.522 45.755 182.986C47.5145 185.45 63.2658 182.986 66.0111 180.282C68.7564 177.578 75.7629 147.267 78.2644 139.384C79.6627 134.864 81.5052 130.489 83.7657 126.322C83.7657 126.322 116.53 139.634 133.797 134.946C151.063 130.258 144.799 118.24 135.291 113.27C125.783 108.3 108.06 109.574 108.06 109.574Z" fill="#263238" stroke="#263238" stroke-width="1.30949" stroke-linecap="round" stroke-linejoin="round"/>
<path id="Vector_8" d="M47.8323 166.489C47.8323 166.489 38.8226 169.193 34.3283 169.193C29.834 169.193 23.0713 167.711 22.0643 173.871C21.0574 180.031 26.8236 185.952 39.5751 186.682C52.3266 187.413 55.8352 187.184 58.5805 184.469C61.3258 181.754 60.8382 178.309 58.0823 173.871C55.3264 169.434 50.5777 166.239 47.8323 166.489Z" fill="#D0CBFF" stroke="#263238" stroke-width="1.30949" stroke-linecap="round" stroke-linejoin="round"/>
<path id="Vector_9" d="M55.3371 175.103C56.2509 174.708 57.1094 174.199 57.8916 173.589C55.1145 169.308 50.5248 166.28 47.8325 166.489C47.8325 166.489 38.8227 169.193 34.3284 169.193H33.6288C31.8374 169.851 29.6433 171.344 31.0743 174.623C33.3214 179.791 46.3273 179.05 55.3371 175.103Z" fill="white" stroke="#263238" stroke-width="1.30949" stroke-linecap="round" stroke-linejoin="round"/>
<path id="Vector_10" d="M243.663 204.673C243.663 204.673 204.645 141.107 202.144 140.616C199.642 140.125 189.138 139.634 189.138 139.634C189.138 139.634 160.624 124.359 155.621 124.359C150.618 124.359 126.61 138.642 124.108 139.634C121.607 140.626 108.102 142.099 108.102 144.061C108.102 146.024 98.5627 161.812 98.5627 161.812L79.0486 168.713L77.554 176.106L71.5439 209.11H249.62L243.663 204.673Z" fill="white"/>
<g id="Clip path group_2">
<mask id="mask1_31_888" style="mask-type:luminance" maskUnits="userSpaceOnUse" x="71" y="124" width="179" height="86">
<g id="clip-path-3">
<path id="Vector_11" d="M243.663 204.673C243.663 204.673 204.645 141.107 202.144 140.616C199.642 140.125 189.138 139.634 189.138 139.634C189.138 139.634 160.624 124.359 155.621 124.359C150.618 124.359 126.61 138.642 124.108 139.634C121.607 140.626 108.102 142.099 108.102 144.061C108.102 146.024 98.5627 161.812 98.5627 161.812L79.0486 168.713L77.554 176.106L71.5439 209.11H249.62L243.663 204.673Z" fill="white"/>
</g>
</mask>
<g mask="url(#mask1_31_888)">
<g id="Group_2">
<path id="Vector_12" opacity="0.21" d="M254.029 210.217L244.352 202.208L204.073 138.883L185.873 136.21C185.873 136.21 157.254 121.717 154.074 122.093C150.894 122.469 118.83 140.793 117.674 140.793C116.519 140.793 108.76 140.407 106.831 143.08C104.902 145.753 96.7609 159.483 96.7609 159.483L76.6214 165.967L74.6816 179.697L90.5813 180.459L122.73 211.783H257.517L254.029 210.217Z" fill="#141414"/>
<path id="Vector_13" d="M179.619 155.923C184.589 155.923 188.619 153.464 188.619 150.431C188.619 147.397 184.589 144.938 179.619 144.938C174.649 144.938 170.62 147.397 170.62 150.431C170.62 153.464 174.649 155.923 179.619 155.923Z" fill="white"/>
<path id="Vector_14" d="M206.638 144.218C206.638 147.256 202.61 149.721 197.649 149.721C192.689 149.721 188.65 147.256 188.65 144.218C188.65 141.18 192.678 138.726 197.649 138.726C202.621 138.726 206.638 141.19 206.638 144.218Z" fill="white"/>
<path id="Vector_15" d="M171.659 152.55C171.659 153.824 170.048 154.858 168.066 154.858C166.083 154.858 164.462 153.814 164.462 152.55C164.462 151.287 166.073 150.253 168.066 150.253C170.058 150.253 171.659 151.276 171.659 152.55Z" fill="white"/>
<path id="Vector_16" d="M191.491 154.858C194.869 154.858 197.607 153.035 197.607 150.786C197.607 148.537 194.869 146.713 191.491 146.713C188.113 146.713 185.375 148.537 185.375 150.786C185.375 153.035 188.113 154.858 191.491 154.858Z" fill="white"/>
<path id="Vector_17" d="M187.898 157.698C187.898 159.452 185.237 160.882 181.962 160.882C178.686 160.882 176.026 159.452 176.026 157.698C176.026 155.944 178.676 154.503 181.962 154.503C185.248 154.503 187.898 155.933 187.898 157.698Z" fill="white"/>
<path id="Vector_18" d="M163.423 152.55C163.423 153.594 161.971 154.503 160.19 154.503C158.409 154.503 156.947 153.626 156.947 152.55C156.947 151.475 158.399 150.608 160.19 150.608C161.981 150.608 163.423 151.475 163.423 152.55Z" fill="white"/>
<path id="Vector_19" d="M173.503 143.163C173.503 143.748 172.369 144.208 170.98 144.208C169.592 144.208 168.468 143.738 168.468 143.163C168.468 142.589 169.592 142.119 170.98 142.119C172.369 142.119 173.503 142.568 173.503 143.163Z" fill="white"/>
<path id="Vector_20" d="M191.491 143.863C191.491 145.429 189.721 146.703 187.537 146.703C185.354 146.703 183.583 145.429 183.583 143.863C183.583 142.297 185.354 141.033 187.537 141.033C189.721 141.033 191.491 142.297 191.491 143.863Z" fill="white"/>
<path id="Vector_21" d="M183.583 142.631C183.583 143.31 182.131 143.863 180.34 143.863C178.549 143.863 177.096 143.31 177.096 142.631C177.096 141.952 178.549 141.388 180.34 141.388C182.131 141.388 183.583 141.942 183.583 142.631Z" fill="white"/>
<path id="Vector_22" d="M195.095 162.125C195.095 163.983 192.434 165.487 189.159 165.487C185.884 165.487 183.223 163.983 183.223 162.125C183.223 160.266 185.873 158.752 189.159 158.752C192.445 158.752 195.095 160.266 195.095 162.125Z" fill="white"/>
<path id="Vector_23" d="M198.688 162.302C203.26 162.302 206.966 159.923 206.966 156.988C206.966 154.052 203.26 151.673 198.688 151.673C194.116 151.673 190.41 154.052 190.41 156.988C190.41 159.923 194.116 162.302 198.688 162.302Z" fill="white"/>
<path id="Vector_24" d="M211.652 151.308C211.652 154.252 207.942 156.633 203.373 156.633C198.805 156.633 195.095 154.252 195.095 151.308C195.095 148.363 198.805 145.993 203.373 145.993C207.942 145.993 211.652 148.374 211.652 151.308Z" fill="white"/>
<path id="Vector_25" d="M149.399 158.084C149.399 159.462 147.788 160.569 145.806 160.569C143.824 160.569 142.202 159.462 142.202 158.084C142.202 156.706 143.813 155.609 145.806 155.609C147.799 155.609 149.399 156.674 149.399 158.084Z" fill="white"/>
<path id="Vector_26" d="M153.713 167.262C153.713 170.008 149.198 172.232 143.633 172.232C138.068 172.232 133.553 170.008 133.553 167.262C133.553 164.516 138.068 162.302 143.633 162.302C149.198 162.302 153.713 164.526 153.713 167.262Z" fill="white"/>
<path id="Vector_27" d="M158.028 161.77C158.028 163.858 155.293 165.487 151.911 165.487C148.53 165.487 145.795 163.827 145.795 161.77C145.795 159.713 148.53 158.042 151.911 158.042C155.293 158.042 158.028 159.713 158.028 161.77Z" fill="white"/>
<path id="Vector_28" d="M131.581 152.728C131.581 154.492 128.921 155.923 125.635 155.923C122.349 155.923 119.699 154.492 119.699 152.728C119.699 150.963 122.359 149.543 125.635 149.543C128.91 149.543 131.581 150.963 131.581 152.728Z" fill="white"/>
<path id="Vector_29" d="M124.925 159.128C124.925 160.308 122.667 161.216 119.879 161.216C117.091 161.216 114.844 160.266 114.844 159.128C114.844 157.99 117.102 157.04 119.879 157.04C122.656 157.04 124.925 157.938 124.925 159.128Z" fill="white"/>
<path id="Vector_30" d="M127.256 162.302C129.147 162.302 130.68 161.428 130.68 160.35C130.68 159.271 129.147 158.397 127.256 158.397C125.365 158.397 123.833 159.271 123.833 160.35C123.833 161.428 125.365 162.302 127.256 162.302Z" fill="white"/>
<path id="Vector_31" d="M111.24 167.972C111.24 169.736 108.06 171.167 104.223 171.167C100.386 171.167 97.2061 169.736 97.2061 167.972C97.2061 166.207 100.386 164.787 104.223 164.787C108.06 164.787 111.24 166.207 111.24 167.972Z" fill="white"/>
<path id="Vector_32" d="M112.321 183.926C116.495 183.926 119.879 181.626 119.879 178.789C119.879 175.952 116.495 173.652 112.321 173.652C108.147 173.652 104.764 175.952 104.764 178.789C104.764 181.626 108.147 183.926 112.321 183.926Z" fill="white"/>
<path id="Vector_33" d="M117.006 168.859C117.006 169.903 115.395 170.812 113.402 170.812C111.41 170.812 109.809 169.935 109.809 168.859C109.809 167.784 111.42 166.907 113.402 166.907C115.385 166.907 117.006 167.784 117.006 168.859Z" fill="white"/>
<path id="Vector_34" d="M101.35 175.771C103.634 175.771 105.484 174.818 105.484 173.641C105.484 172.465 103.634 171.511 101.35 171.511C99.0674 171.511 97.2166 172.465 97.2166 173.641C97.2166 174.818 99.0674 175.771 101.35 175.771Z" fill="white"/>
<path id="Vector_35" d="M128.518 177.546C128.518 178.914 126.398 180.021 123.843 180.021C121.289 180.021 119.158 178.914 119.158 177.546C119.158 176.179 121.278 175.061 123.843 175.061C126.408 175.061 128.518 176.179 128.518 177.546Z" fill="white"/>
<path id="Vector_36" opacity="0.1" d="M202.144 140.616L203.628 171.094L156.48 158.93L157.603 194.315L132.344 176.628L130.108 188.792L109.332 193.219L89.0972 173.14L80.151 193.772L37.487 199.849L1.56445 211.073H128.115L127.129 208.974L249.662 209.11L243.663 204.673L202.144 140.616Z" fill="#141414"/>
</g>
</g>
</g>
<path id="Vector_37" d="M243.663 204.673C243.663 204.673 204.645 141.107 202.144 140.616C199.642 140.125 189.138 139.634 189.138 139.634C189.138 139.634 160.624 124.359 155.621 124.359C150.618 124.359 126.61 138.642 124.108 139.634C121.607 140.626 108.102 142.099 108.102 144.061C108.102 146.024 98.5627 161.812 98.5627 161.812L79.0486 168.713L77.554 176.106L71.5439 209.11H249.62L243.663 204.673Z" stroke="#263238" stroke-width="1.30949" stroke-linecap="round" stroke-linejoin="round"/>
<path id="Vector_38" opacity="0.1" d="M108.06 144.061C108.06 145.586 102.432 155.275 99.835 159.65L120.123 150.253L161.059 148.468L175.475 142.516H188.968L191.268 139.739L189.148 139.634C189.148 139.634 160.635 124.359 155.632 124.359C150.629 124.359 126.621 138.642 124.119 139.634C121.617 140.626 108.06 142.099 108.06 144.061Z" fill="#141414"/>
<path id="Vector_39" d="M98.6052 161.801H115.607L140.623 184.469L140.114 200.235L123.61 208.609" stroke="#263238" stroke-width="1.30949" stroke-linecap="round" stroke-linejoin="round"/>
<path id="Vector_40" d="M124.352 169.079L146.124 152.936L178.633 171.658L193.144 209.601" stroke="#263238" stroke-width="1.30949" stroke-linecap="round" stroke-linejoin="round"/>
<path id="Vector_41" d="M178.633 171.658L172.634 191.371L148.625 197.771L140.623 192.352" stroke="#263238" stroke-width="1.30949" stroke-linecap="round" stroke-linejoin="round"/>
<path id="Vector_42" d="M148.625 197.771L149.622 209.1" stroke="#263238" stroke-width="1.30949" stroke-linecap="round" stroke-linejoin="round"/>
<path id="Vector_43" d="M172.634 191.371L180.138 208.609" stroke="#263238" stroke-width="1.30949" stroke-linecap="round" stroke-linejoin="round"/>
<path id="Vector_44" d="M153.374 108.833C153.374 108.833 153.872 121.362 151.371 126.823C148.869 132.284 145.117 134.946 130.617 135.938C116.116 136.93 96.6019 130.018 96.6019 130.018C96.6019 130.018 86.0976 147.517 81.8471 155.15C77.5966 162.783 69.8375 171.407 67.5904 174.372C65.3432 177.338 62.8311 181.754 59.8314 183.237C56.8316 184.719 49.8252 175.844 48.5744 172.639C47.3237 169.434 46.3273 167.22 46.5817 165.748C46.8361 164.276 52.3267 161.801 52.3267 161.801C52.3267 161.801 60.8065 146.035 64.8344 139.634C68.8624 133.234 71.8409 120.172 75.3388 115.484C78.8367 110.796 86.8501 108.092 96.8457 108.593C106.841 109.094 123.112 111.099 127.362 111.099C131.613 111.099 153.374 108.833 153.374 108.833Z" fill="#263238" stroke="#263238" stroke-width="1.30949" stroke-linecap="round" stroke-linejoin="round"/>
<path id="Vector_45" d="M56.1213 155.307C60.2128 148.134 67.1133 135.792 69.0954 130.718C71.968 123.357 75.1373 117.144 75.1373 117.144" stroke="white" stroke-width="0.982119" stroke-linecap="round" stroke-linejoin="round"/>
<path id="Vector_46" d="M52.9946 160.715C52.9946 160.715 53.4822 159.89 54.2666 158.523" stroke="white" stroke-width="0.982119" stroke-linecap="round" stroke-linejoin="round"/>
<path id="Vector_47" d="M114.42 49.2971C114.42 49.2971 109.587 55.3739 108.251 60.3021C106.916 65.2304 102.082 82.6359 101.086 83.9514C100.089 85.267 96.9094 89.7045 93.9096 91.8345C90.9099 93.9645 80.978 97.8696 77.3104 100.991C73.6429 104.113 75.4025 105.627 73.9079 108.091C72.4134 110.556 79.2078 112.038 80.7342 112.038C82.2605 112.038 93.2419 111.38 99.4109 109.25C105.58 107.12 115.258 95.1235 115.586 94.4657C115.915 93.8079 117.706 82.9804 118.257 70.451C118.808 57.9215 120.78 49.2971 114.42 49.2971Z" fill="#D0CBFF"/>
<g id="Clip path group_3">
<mask id="mask2_31_888" style="mask-type:luminance" maskUnits="userSpaceOnUse" x="73" y="49" width="46" height="64">
<g id="clip-path-4">
<path id="Vector_48" d="M114.42 49.2971C114.42 49.2971 109.587 55.3739 108.251 60.3021C106.916 65.2304 102.082 82.6359 101.086 83.9514C100.089 85.267 96.9094 89.7045 93.9096 91.8345C90.9099 93.9645 80.978 97.8696 77.3104 100.991C73.6429 104.113 75.4025 105.627 73.9079 108.091C72.4134 110.556 79.2078 112.038 80.7342 112.038C82.2605 112.038 93.2419 111.38 99.4109 109.25C105.58 107.12 115.258 95.1235 115.586 94.4657C115.915 93.8079 117.706 82.9804 118.257 70.451C118.808 57.9215 120.78 49.2971 114.42 49.2971Z" fill="white"/>
</g>
</mask>
<g mask="url(#mask2_31_888)">
<g id="Group_3">
<path id="Vector_49" opacity="0.2" d="M118.946 58.548C118.84 57.6814 118.777 57.1802 118.777 57.1802L112.576 61.9414C110.687 65.0918 109.811 68.7321 110.064 72.3826C110.382 78.8457 111.94 83.1684 111.007 83.1684C110.074 83.1684 106.937 79.4618 106.937 83.1684C106.937 86.875 109.131 89.6315 109.756 91.7928C110.382 93.9542 101.934 84.7033 102.877 87.7834C103.82 90.8636 107.88 94.5702 107.562 96.4183C107.244 98.2664 102.262 89.9447 100.365 92.106C98.4675 94.2674 100.057 97.9531 98.1813 98.5692C96.6125 99.0912 83.4794 108.634 82.1121 111.944C85.5782 111.756 94.2276 111.005 99.4321 109.209C105.601 107.068 115.279 95.0818 115.607 94.424C115.936 93.7662 117.727 82.9387 118.278 70.4092C118.459 65.9195 118.84 61.8579 118.946 58.548Z" fill="#141414"/>
</g>
</g>
</g>
<path id="Vector_50" d="M114.42 49.2971C114.42 49.2971 109.587 55.3739 108.251 60.3021C106.916 65.2304 102.082 82.6359 101.086 83.9514C100.089 85.267 96.9094 89.7045 93.9096 91.8345C90.9099 93.9645 80.978 97.8696 77.3104 100.991C73.6429 104.113 75.4025 105.627 73.9079 108.092C72.4134 110.556 79.2078 112.038 80.7342 112.038C82.2605 112.038 93.2419 111.38 99.4109 109.25C105.58 107.12 115.258 95.1235 115.586 94.4657C115.915 93.8079 117.706 82.9804 118.257 70.451C118.808 57.9215 120.78 49.2971 114.42 49.2971Z" stroke="#263238" stroke-width="1.30949" stroke-linecap="round" stroke-linejoin="round"/>
<path id="Vector_51" d="M112.47 93.9228C112.47 93.9228 103.566 84.0141 103.28 86.2799C102.994 88.5456 109.311 93.9228 109.311 96.4705C109.311 99.0181 100.121 89.1094 99.252 91.939C99.0246 92.7286 99.1051 93.5734 99.4777 94.3076C99.8504 95.0417 100.488 95.6121 101.266 95.9066" stroke="#263238" stroke-width="1.30949" stroke-linecap="round" stroke-linejoin="round"/>
<path id="Vector_52" d="M82.483 101.524C82.483 101.524 77.3316 99.655 75.1586 101.524C72.9857 103.393 64.8451 110.075 68.1098 111.965C71.3745 113.855 77.2044 113.897 79.2289 112.237C80.3851 111.275 81.6645 110.468 83.0342 109.835C83.0342 109.835 82.218 112.769 84.9316 111.172C87.6451 109.574 90.0831 104.218 88.4507 102.881C86.8183 101.545 82.483 101.524 82.483 101.524Z" fill="#263238" stroke="#263238" stroke-width="1.30949" stroke-linecap="round" stroke-linejoin="round"/>
<path id="Vector_53" d="M112.449 48.4514C111.732 54.8897 111.403 61.3641 111.463 67.8407C111.749 76.1937 113.297 92.649 111.611 97.9113C109.926 103.174 110.064 107.883 113.297 109.971C116.53 112.059 131.316 114.398 140.58 113.156C149.845 111.913 155.356 110.378 155.918 106.891C156.48 103.403 156.904 73.3536 155.208 62.4113C153.512 51.4689 150.152 41.2156 146.728 37.8849C143.305 34.5541 139.838 35.7966 131.253 39.1378C122.667 42.479 114.844 45.1206 112.449 48.4514Z" fill="#D0CBFF" stroke="#263238" stroke-width="1.30949" stroke-linecap="round" stroke-linejoin="round"/>
<path id="Vector_54" d="M130.32 64.2385C130.32 64.2385 122.317 69.1667 111.06 64.2385C111.06 64.2385 110.562 69.4591 111.315 69.4591C114.803 70.491 118.432 70.9876 122.073 70.9313C129.323 70.9313 132.069 69.2085 132.069 69.2085L130.32 64.2385Z" fill="#263238" stroke="#263238" stroke-width="1.30949" stroke-linecap="round" stroke-linejoin="round"/>
<path id="Vector_55" d="M129.609 46.2587C129.609 46.2587 126.366 54.1418 127.108 61.2836C127.85 68.4254 130.362 74.3456 137.612 74.3456C144.862 74.3456 150.873 58.8195 151.127 50.1951C151.381 41.5706 148.371 37.8849 141.365 37.8849C134.358 37.8849 129.609 46.2587 129.609 46.2587Z" fill="#263238" stroke="#263238" stroke-width="1.30949" stroke-linecap="round" stroke-linejoin="round"/>
<path id="Vector_56" d="M111.049 46.7808C111.049 46.7808 115.289 55.1337 116.349 56.7625C117.409 58.3914 117.611 57.7336 118.734 57.1802C119.858 56.6268 140.4 39.1691 142.234 38.4696C144.068 37.77 147.714 39.4406 148 37.6447C148.286 35.8488 140.4 24.6141 138.153 22.8182C135.906 21.0223 131.401 27.7987 130.277 28.352C129.154 28.9054 128.73 28.352 126.758 28.7697C124.787 29.1873 114.706 41.6541 111.049 46.7808Z" fill="#D0CBFF"/>
<g id="Clip path group_4">
<mask id="mask3_31_888" style="mask-type:luminance" maskUnits="userSpaceOnUse" x="111" y="22" width="38" height="36">
<g id="clip-path-5">
<path id="Vector_57" d="M111.049 46.7808C111.049 46.7808 115.289 55.1337 116.349 56.7625C117.409 58.3914 117.611 57.7336 118.734 57.1802C119.858 56.6268 140.4 39.1691 142.234 38.4696C144.068 37.77 147.714 39.4406 148 37.6447C148.286 35.8488 140.4 24.6141 138.153 22.8182C135.906 21.0223 131.401 27.7987 130.277 28.352C129.154 28.9054 128.73 28.352 126.758 28.7697C124.787 29.1873 114.706 41.6541 111.049 46.7808Z" fill="white"/>
</g>
</mask>
<g mask="url(#mask3_31_888)">
<g id="Group_4">
<path id="Vector_58" opacity="0.2" d="M138.195 22.8182C135.938 21.0119 131.443 27.7987 130.32 28.3521C129.196 28.9054 128.772 28.352 126.801 28.7697C125.656 29.0098 121.734 33.3534 117.939 37.9475L120.059 49.6939C120.059 49.6939 129.8 45.2564 132.62 43.8468C129.953 46.4499 127.45 49.2116 125.126 52.1162C131.666 46.7286 141.025 38.929 142.287 38.4696C144.11 37.7805 147.767 39.4406 148.053 37.6447C148.339 35.8488 140.442 24.6141 138.195 22.8182Z" fill="#141414"/>
</g>
</g>
</g>
<path id="Vector_59" d="M111.049 46.7808C111.049 46.7808 115.289 55.1337 116.349 56.7625C117.409 58.3914 117.611 57.7336 118.734 57.1802C119.858 56.6268 140.4 39.1691 142.234 38.4696C144.068 37.77 147.714 39.4406 148 37.6447C148.286 35.8488 140.4 24.6141 138.153 22.8182C135.906 21.0223 131.401 27.7987 130.277 28.352C129.154 28.9054 128.73 28.352 126.758 28.7697C124.787 29.1873 114.706 41.6541 111.049 46.7808Z" stroke="#263238" stroke-width="1.30949" stroke-linecap="round" stroke-linejoin="round"/>
<path id="Vector_60" d="M126.514 39.0543C126.514 39.0543 140.05 29.7094 135.461 29.7094C130.871 29.7094 130.288 35.3685 130.288 35.3685" stroke="#263238" stroke-width="1.30949" stroke-linecap="round" stroke-linejoin="round"/>
<path id="Vector_61" d="M115.406 45.9559L120.048 49.6939C122.397 46.2537 124.555 42.6916 126.514 39.023L124.129 31.2651L115.406 45.9559Z" fill="white"/>
<g id="Clip path group_5">
<mask id="mask4_31_888" style="mask-type:luminance" maskUnits="userSpaceOnUse" x="115" y="31" width="12" height="19">
<g id="clip-path-6">
<path id="Vector_62" d="M115.406 45.9559L120.048 49.6939C122.397 46.2537 124.555 42.6916 126.514 39.023L124.129 31.2651L115.406 45.9559Z" fill="white"/>
</g>
</mask>
<g mask="url(#mask4_31_888)">
<g id="Group_5">
<path id="Vector_63" d="M115.406 45.9559L120.048 49.6939C122.397 46.2537 124.555 42.6916 126.514 39.023L124.129 31.2651L115.406 45.9559Z" fill="#D0CBFF"/>
<path id="Vector_64" opacity="0.5" d="M115.406 45.9559L120.048 49.6939C122.397 46.2537 124.555 42.6916 126.514 39.023L124.129 31.2651L115.406 45.9559Z" fill="white"/>
</g>
</g>
</g>
<path id="Vector_65" d="M115.406 45.9559L120.048 49.6939C122.397 46.2537 124.555 42.6916 126.514 39.023L124.129 31.2651L115.406 45.9559Z" stroke="#263238" stroke-width="1.30949" stroke-linecap="round" stroke-linejoin="round"/>
<path id="Vector_66" d="M100.64 7.52184C98.2652 10.5015 96.9637 14.1747 96.9409 17.963C96.9409 24.896 100.036 35.285 102.145 39.5763C104.255 43.8677 109.565 49.8296 112.13 50.0175C114.696 50.2055 120.992 40.6205 122.253 38.2399C122.967 36.9824 123.489 35.6278 123.801 34.22C123.801 34.22 127.458 32.5598 127.034 25.867C126.61 19.1742 123.938 9.2342 124.649 7.57405C125.359 5.9139 128.581 2.72932 127.882 1.61211C127.182 0.494904 125.762 1.34064 124.225 2.1655C122.688 2.99035 116.805 1.75829 112.406 2.1655C109.482 2.45401 106.644 3.30544 104.053 4.67139C102.741 5.39708 101.582 6.36482 100.64 7.52184Z" fill="white"/>
<g id="Clip path group_6">
<mask id="mask5_31_888" style="mask-type:luminance" maskUnits="userSpaceOnUse" x="96" y="1" width="32" height="50">
<g id="clip-path-7">
<path id="Vector_67" d="M100.64 7.52184C98.2652 10.5015 96.9637 14.1747 96.9409 17.963C96.9409 24.896 100.036 35.285 102.145 39.5763C104.255 43.8677 109.565 49.8296 112.13 50.0175C114.696 50.2055 120.992 40.6205 122.253 38.2399C122.967 36.9824 123.489 35.6278 123.801 34.22C123.801 34.22 127.458 32.5598 127.034 25.867C126.61 19.1742 123.938 9.2342 124.649 7.57405C125.359 5.9139 128.581 2.72932 127.882 1.61211C127.182 0.494904 125.762 1.34064 124.225 2.1655C122.688 2.99035 116.805 1.75829 112.406 2.1655C109.482 2.45401 106.644 3.30544 104.053 4.67139C102.741 5.39708 101.582 6.36482 100.64 7.52184Z" fill="white"/>
</g>
</mask>
<g mask="url(#mask5_31_888)">
<g id="Group_6">
<path id="Vector_68" d="M112.48 49.9237C115.183 49.3807 121.077 40.4639 122.296 38.1982C123.01 36.9407 123.531 35.5861 123.843 34.1783C123.843 34.1783 127.5 32.5182 127.076 25.8254C126.652 19.1326 123.981 9.19254 124.691 7.53239C125.401 5.87224 128.624 2.68768 127.924 1.57047C127.789 1.3516 127.581 1.18475 127.337 1.09743C127.092 1.01012 126.824 1.00756 126.578 1.09017C122.717 3.89365 119.212 7.1432 116.137 10.7692C111.812 16.2717 115.883 24.0295 115.883 24.0295C115.883 24.0295 118.67 31.0355 118.162 36.0369C117.748 40.0985 114.992 46.1857 112.48 49.9237Z" fill="#D0CBFF"/>
<path id="Vector_69" opacity="0.5" d="M112.48 49.9237C115.183 49.3807 121.077 40.4639 122.296 38.1982C123.01 36.9407 123.531 35.5861 123.843 34.1783C123.843 34.1783 127.5 32.5182 127.076 25.8254C126.652 19.1326 123.981 9.19254 124.691 7.53239C125.401 5.87224 128.624 2.68768 127.924 1.57047C127.789 1.3516 127.581 1.18475 127.337 1.09743C127.092 1.01012 126.824 1.00756 126.578 1.09017C122.717 3.89365 119.212 7.1432 116.137 10.7692C111.812 16.2717 115.883 24.0295 115.883 24.0295C115.883 24.0295 118.67 31.0355 118.162 36.0369C117.748 40.0985 114.992 46.1857 112.48 49.9237Z" fill="white"/>
</g>
</g>
</g>
<path id="Vector_70" d="M100.64 7.52184C98.2652 10.5015 96.9637 14.1747 96.9409 17.963C96.9409 24.896 100.036 35.285 102.145 39.5763C104.255 43.8677 109.565 49.8296 112.13 50.0175C114.696 50.2055 120.992 40.6205 122.253 38.2399C122.967 36.9824 123.489 35.6278 123.801 34.22C123.801 34.22 127.458 32.5598 127.034 25.867C126.61 19.1742 123.938 9.2342 124.649 7.57405C125.359 5.9139 128.581 2.72932 127.882 1.61211C127.182 0.494904 125.762 1.34064 124.225 2.1655C122.688 2.99035 116.805 1.75829 112.406 2.1655C109.482 2.45401 106.644 3.30544 104.053 4.67139C102.741 5.39708 101.582 6.36482 100.64 7.52184Z" stroke="#263238" stroke-width="1.30949" stroke-linecap="round" stroke-linejoin="round"/>
<path id="Vector_71" d="M104.711 29.4693C104.616 30.7578 104.181 31.9995 103.449 33.0715C102.326 34.4497 102.888 35.4207 104.573 35.285C105.562 35.2137 106.5 34.8249 107.244 34.1782" stroke="#263238" stroke-width="1.30949" stroke-linecap="round" stroke-linejoin="round"/>
<path id="Vector_72" d="M104.435 23.643C104.435 23.643 93.3161 25.3554 92.3303 27.026C91.3445 28.6966 98.2343 34.93 100.354 33.8128C102.474 32.6956 104.011 28.4982 105.654 28.5922C107.297 28.6861 110.859 32.0587 113.954 31.5053C117.049 30.9519 120.706 23.8832 120.43 22.4945C120.155 21.1058 107.954 22.8182 104.435 23.643Z" fill="#263238" stroke="#263238" stroke-width="1.30949" stroke-linecap="round" stroke-linejoin="round"/>
<path id="Vector_73" d="M110.827 26.055C105.22 23.476 103.344 26.055 99.2309 29.3753C98.0337 30.304 96.6864 31.0276 95.2454 31.5157C97.1003 33.1132 99.3051 34.3662 100.354 33.8128C102.474 32.706 104.011 28.4982 105.654 28.5922C107.297 28.6862 110.859 32.0587 113.954 31.5053C115.65 31.2025 117.505 28.9472 118.798 26.7441C116.129 27.2675 113.363 27.0284 110.827 26.055Z" fill="#D0CBFF" stroke="#263238" stroke-width="1.30949" stroke-linecap="round" stroke-linejoin="round"/>
<path id="Vector_74" d="M105.94 38.1981C107.341 38.5657 108.824 38.496 110.183 37.9985C111.543 37.5011 112.712 36.6004 113.53 35.4207" stroke="#263238" stroke-width="1.30949" stroke-linecap="round" stroke-linejoin="round"/>
<path id="Vector_75" d="M120.472 20.8762C120.472 20.8762 121.872 27.5272 121.458 29.0516C121.045 30.576 122.582 29.4693 123.144 26.8381C123.437 25.6522 123.625 24.4434 123.705 23.2254C122.857 22.1749 121.742 21.3643 120.472 20.8762Z" fill="#D0CBFF" stroke="#263238" stroke-width="1.30949" stroke-linecap="round" stroke-linejoin="round"/>
<path id="Vector_76" d="M127.924 1.61211C127.224 0.505347 125.804 1.34064 124.267 2.1655C122.73 2.99035 116.847 1.75829 112.448 2.1655C109.524 2.45402 106.687 3.30544 104.096 4.6714C102.768 5.39266 101.594 6.36066 100.64 7.52184C98.2652 10.5015 96.9637 14.1747 96.9409 17.963C96.9569 19.5565 97.0808 21.1471 97.3119 22.7242C101.319 19.8738 112.332 14.4339 127.055 26.5875C127.055 26.3473 127.055 26.1176 127.055 25.867C126.641 19.216 123.96 9.2342 124.67 7.57405C125.38 5.9139 128.624 2.72932 127.924 1.61211Z" fill="#263238"/>
<g id="Clip path group_7">
<mask id="mask6_31_888" style="mask-type:luminance" maskUnits="userSpaceOnUse" x="96" y="1" width="33" height="26">
<g id="clip-path-8">
<path id="Vector_77" d="M127.924 1.61211C127.224 0.505347 125.804 1.34064 124.267 2.1655C122.73 2.99035 116.847 1.75829 112.448 2.1655C109.524 2.45402 106.687 3.30544 104.096 4.6714C102.768 5.39266 101.594 6.36066 100.64 7.52184C98.2652 10.5015 96.9637 14.1747 96.9409 17.963C96.9569 19.5565 97.0808 21.1471 97.3119 22.7242C101.319 19.8738 112.332 14.4339 127.055 26.5875C127.055 26.3473 127.055 26.1176 127.055 25.867C126.641 19.216 123.96 9.2342 124.67 7.57405C125.38 5.9139 128.624 2.72932 127.924 1.61211Z" fill="white"/>
</g>
</mask>
<g mask="url(#mask6_31_888)">
<g id="Group_7">
<path id="Vector_78" d="M110.307 4.3477C114.271 3.6377 115.692 4.12844 116.19 4.48344C116.305 4.5661 116.401 4.67063 116.474 4.7908C116.547 4.91098 116.594 5.04436 116.614 5.183C116.942 7.78286 119.529 7.78287 122.518 7.78287C123.285 7.79767 124.019 8.09577 124.574 8.61817C124.545 8.26598 124.584 7.91145 124.691 7.57405C124.691 7.5114 124.754 7.44875 124.786 7.37566C124.119 6.92302 123.328 6.67922 122.518 6.6761C119.423 6.6761 117.918 6.603 117.727 5.04726C117.692 4.75914 117.597 4.4813 117.447 4.23141C117.298 3.98153 117.097 3.7651 116.858 3.59593C115.702 2.76064 113.487 2.6458 110.106 3.25139C108.675 3.51242 108.282 3.37668 107.805 3.13653C107.254 3.30359 106.746 3.49153 106.194 3.70035C106.562 3.78822 106.917 3.91786 107.254 4.08667C108.2 4.55778 109.293 4.65129 110.307 4.3477Z" fill="#D0CBFF"/>
<path id="Vector_79" d="M125.709 21.5026C123.981 17.6916 122.931 17.5559 120.96 18.1614L120.494 18.2972C118.755 18.7879 116.921 19.0698 115.194 16.6683C113.466 14.2669 110.54 14.0685 107.201 16.2611C105.505 17.3783 104.986 17.1904 103.449 16.6579C103.046 16.5117 102.591 16.3551 102.05 16.1881C100.206 15.6451 98.2552 17.1278 96.9727 18.4225C96.9727 18.9237 96.9727 19.4666 97.0469 19.9887C98.1704 18.6626 100.227 16.7936 101.721 17.2531C102.251 17.4097 102.686 17.5558 103.078 17.6916C103.829 18.0839 104.682 18.2449 105.527 18.1537C106.372 18.0625 107.169 17.7232 107.816 17.18C109.798 15.8853 112.533 14.8411 114.282 17.3053C116.307 20.1557 118.702 19.9469 120.78 19.3935L121.267 19.2473C122.645 18.8297 123.154 18.6731 124.67 21.9934C125.175 23.2098 125.976 24.2853 127.002 25.1257C127.002 24.5619 126.896 23.9876 126.822 23.382C126.376 22.8017 126.002 22.1707 125.709 21.5026Z" fill="#D0CBFF"/>
<path id="Vector_80" d="M123.016 2.43698C122.561 2.46357 122.104 2.46357 121.649 2.43698C122.17 3.1918 122.848 3.82949 123.637 4.30815C124.426 4.78681 125.309 5.09563 126.228 5.21435C126.472 4.88023 126.726 4.53567 126.949 4.17022C125.474 4.05563 124.085 3.44343 123.016 2.43698Z" fill="#D0CBFF"/>
<path id="Vector_81" d="M101.372 10.9466C101.888 10.9017 102.403 11.0508 102.813 11.3642C103.502 11.8341 104.106 12.0951 106.099 11.4477C106.926 11.1763 107.7 10.8421 108.442 10.5289C110.795 9.48478 112.183 9.00449 113.264 10.2261C115.215 12.4188 116.444 13.0557 118.776 13.0557H119.995C122.041 12.9722 123.408 12.993 123.885 14.0998C124.316 14.9931 124.947 15.7785 125.73 16.3969C125.613 15.7286 125.497 15.0813 125.38 14.4444C125.194 14.2019 125.038 13.9391 124.914 13.6613C124.097 11.8027 121.893 11.8967 119.953 11.9802H118.776C116.911 11.9802 115.967 11.6252 114.112 9.53699C112.427 7.64713 110.275 8.56596 107.996 9.53699C107.276 9.83979 106.523 10.1635 105.749 10.4141C104.138 10.9466 103.852 10.7482 103.449 10.4767C102.84 10.0283 102.088 9.80971 101.329 9.86067C100.275 9.95958 99.2786 10.3793 98.4778 11.0614C98.1542 11.7726 97.8814 12.5053 97.6616 13.2541C98.8276 12.1055 100.269 10.9466 101.372 10.9466Z" fill="#D0CBFF"/>
</g>
</g>
</g>
<path id="Vector_82" d="M127.924 1.61211C127.224 0.505347 125.804 1.34064 124.267 2.1655C122.73 2.99035 116.847 1.75829 112.448 2.1655C109.524 2.45402 106.687 3.30544 104.096 4.6714C102.768 5.39266 101.594 6.36066 100.64 7.52184C98.2652 10.5015 96.9637 14.1747 96.9409 17.963C96.9569 19.5565 97.0808 21.1471 97.3119 22.7242C101.319 19.8738 112.332 14.4339 127.055 26.5875C127.055 26.3473 127.055 26.1176 127.055 25.867C126.641 19.216 123.96 9.2342 124.67 7.57405C125.38 5.9139 128.624 2.72932 127.924 1.61211Z" stroke="#263238" stroke-width="1.30949" stroke-linecap="round" stroke-linejoin="round"/>
<path id="Vector_83" d="M100.64 100.208C98.049 100.013 95.4827 99.572 92.9768 98.8928C89.7969 97.9113 88.1433 97.2535 86.3095 98.5691C84.4758 99.8847 79.9497 106.922 79.6317 108.426C79.3137 109.929 80.6917 111.057 81.3065 110.514C81.9212 109.971 87.6663 106.087 87.6663 106.087C89.1549 107.32 90.9331 108.167 92.839 108.551C94.4354 108.739 96.045 108.325 97.3439 107.392L100.524 107.893L100.64 100.208Z" fill="#263238" stroke="#263238" stroke-width="1.30949" stroke-linecap="round" stroke-linejoin="round"/>
<path id="Vector_84" d="M148.117 43.3874C148.117 43.3874 143.951 39.2735 136.457 45.3503C128.963 51.4271 131.157 63.424 131.295 68.321C131.433 73.2179 133.287 85.7264 133.287 88.3576V92.6281C133.287 92.6281 123.451 96.8985 119.624 98.0471C115.798 99.1956 108.283 99.3627 106.619 99.6863C104.954 100.01 100.778 98.2141 99.7817 100.02C98.7853 101.827 96.7819 108.718 99.4425 109.867C102.103 111.015 115.448 111.182 124.786 111.182C134.125 111.182 148.466 108.885 151.805 106.912C155.144 104.938 154.466 93.6095 154.466 85.8935C154.466 78.1774 154.296 61.0956 152.971 54.027C151.646 46.9583 149.452 44.703 148.117 43.3874Z" fill="#D0CBFF"/>
<g id="Clip path group_8">
<mask id="mask7_31_888" style="mask-type:luminance" maskUnits="userSpaceOnUse" x="98" y="42" width="57" height="70">
<g id="clip-path-9">
<path id="Vector_85" d="M148.117 43.3874C148.117 43.3874 143.951 39.2735 136.457 45.3503C128.963 51.4271 131.157 63.424 131.295 68.321C131.433 73.2179 133.287 85.7264 133.287 88.3576V92.6281C133.287 92.6281 123.451 96.8985 119.624 98.0471C115.798 99.1956 108.283 99.3627 106.619 99.6863C104.954 100.01 100.778 98.2141 99.7817 100.02C98.7853 101.827 96.7819 108.718 99.4425 109.867C102.103 111.015 115.448 111.182 124.786 111.182C134.125 111.182 148.466 108.885 151.805 106.912C155.144 104.938 154.466 93.6095 154.466 85.8935C154.466 78.1774 154.296 61.0956 152.971 54.027C151.646 46.9583 149.452 44.703 148.117 43.3874Z" fill="white"/>
</g>
</mask>
<g mask="url(#mask7_31_888)">
<g id="Group_8">
<path id="Vector_86" opacity="0.2" d="M152.961 54.0582C151.625 47 149.452 44.6612 148.116 43.3873C148.116 43.3873 145.838 41.1529 141.629 42.4372L141.354 42.8339C141.354 42.8339 147.926 43.7632 146.654 46.5301C145.382 49.2971 134.453 57.9319 134.453 57.9319C134.453 57.9319 140.707 54.2357 146.336 53.9329C151.964 53.6302 148.53 57.3159 145.403 57.9319C142.276 58.5479 154.158 59.4772 149.463 60.7093C144.767 61.9413 140.082 60.0933 142.265 63.1734C144.449 66.2536 153.226 67.1828 150.745 70.263C148.265 73.3432 140.145 76.4233 141.99 81.0488C143.834 85.6742 152.314 84.7449 152.314 87.5223C152.314 90.2997 150.12 91.5317 146.06 92.1478C142 92.7638 153.332 93.3067 150.629 97.5041C147.926 101.701 144.809 95.5307 139.796 98.6109C134.782 101.691 132.291 107.246 125.094 107.862C117.897 108.478 112.268 107.862 106.64 109.71C105.58 110.044 104.604 110.357 103.64 110.629C109.014 111.13 117.96 111.213 124.839 111.213C134.178 111.213 148.519 108.916 151.858 106.943C155.197 104.97 154.519 93.6409 154.519 85.9248C154.519 78.2088 154.285 61.1269 152.961 54.0582Z" fill="#141414"/>
</g>
</g>
</g>
<path id="Vector_87" d="M148.117 43.3874C148.117 43.3874 143.951 39.2735 136.457 45.3503C128.963 51.4271 131.157 63.424 131.295 68.321C131.433 73.2179 133.287 85.7264 133.287 88.3576V92.6281C133.287 92.6281 123.451 96.8985 119.624 98.0471C115.798 99.1956 108.283 99.3627 106.619 99.6863C104.954 100.01 100.778 98.2141 99.7817 100.02C98.7853 101.827 96.7819 108.718 99.4425 109.867C102.103 111.015 115.448 111.182 124.786 111.182C134.125 111.182 148.466 108.885 151.805 106.912C155.144 104.938 154.466 93.6095 154.466 85.8935C154.466 78.1774 154.296 61.0956 152.971 54.027C151.646 46.9583 149.452 44.703 148.117 43.3874Z" stroke="#263238" stroke-width="1.30949" stroke-linecap="round" stroke-linejoin="round"/>
<path id="Vector_88" d="M135.461 93.0771C135.461 93.0771 143.22 93.359 147.523 98.4543" stroke="#263238" stroke-width="1.30949" stroke-linecap="round" stroke-linejoin="round"/>
<path id="Vector_89" d="M135.747 91.939C135.747 91.939 143.22 89.6732 147.237 91.3751C151.254 93.077 154.996 90.237 148.392 87.9817C141.789 85.7264 136.489 88.3889 134.888 90.5294" stroke="#263238" stroke-width="1.30949" stroke-linecap="round" stroke-linejoin="round"/>
<path id="Vector_90" d="M148.392 50.9051C148.392 50.9051 146.092 48.3574 138.905 54.0374C131.719 59.7174 133.447 63.0899 138.047 60.8242C142.647 58.5585 150.682 55.7393 151.265 59.1327C151.848 62.5261 143.22 60.8242 144.905 62.808C146.59 64.7918 150.65 64.7918 150.65 64.7918" stroke="#263238" stroke-width="1.30949" stroke-linecap="round" stroke-linejoin="round"/>
<path id="Vector_91" d="M104.933 112.205H53.9167V114.502H104.933V112.205Z" fill="white" stroke="#263238" stroke-width="1.30949" stroke-linecap="round" stroke-linejoin="round"/>
<path id="Vector_92" d="M81.7623 112.205H53.9167V114.502H81.7623V112.205Z" fill="white" stroke="#263238" stroke-width="1.30949" stroke-linecap="round" stroke-linejoin="round"/>
<path id="Vector_93" d="M53.9167 112.205L42.575 87.397H73.0916L81.7622 112.205H53.9167Z" fill="white" stroke="#263238" stroke-width="1.30949" stroke-linecap="round" stroke-linejoin="round"/>
<path id="Vector_94" d="M123.61 208.609C123.61 208.609 92.0969 173.109 89.0972 173.109C86.0975 173.109 15.5667 186.411 13.0652 189.815C10.5637 193.219 1.56445 211 1.56445 211H128.115L123.61 208.609Z" fill="white"/>
<g id="Clip path group_9">
<mask id="mask8_31_888" style="mask-type:luminance" maskUnits="userSpaceOnUse" x="1" y="173" width="128" height="38">
<g id="clip-path-10">
<path id="Vector_95" d="M123.61 208.609C123.61 208.609 92.0969 173.109 89.0972 173.109C86.0975 173.109 15.5667 186.411 13.0652 189.815C10.5637 193.219 1.56445 211 1.56445 211H128.115L123.61 208.609Z" fill="white"/>
</g>
</mask>
<g mask="url(#mask8_31_888)">
<g id="Group_9">
<path id="Vector_96" opacity="0.21" d="M91.3761 170.927L126.228 207.158L132.821 212.879L-2.72852 212.117L12.7683 187.319L86.3412 170.53C86.3412 170.53 87.9206 169.778 91.3761 170.927Z" fill="#141414"/>
<path id="Vector_97" d="M88.9808 179.478C88.9808 180.762 86.8608 181.796 84.2003 181.796C81.5398 181.796 79.4304 180.752 79.4304 179.478C79.4304 178.204 81.5504 177.16 84.2003 177.16C86.8502 177.16 88.9808 178.194 88.9808 179.478Z" fill="white"/>
<path id="Vector_98" d="M60.4991 194.555C60.4991 197.886 56.7998 200.59 52.2313 200.59C47.6628 200.59 43.9529 197.886 43.9529 194.555C43.9529 191.224 47.6522 188.531 52.2313 188.531C56.8104 188.531 60.4991 191.235 60.4991 194.555Z" fill="white"/>
<path id="Vector_99" d="M86.776 185.701C86.776 189.021 83.0661 191.726 78.4976 191.726C73.9291 191.726 70.2192 189.021 70.2192 185.701C70.2192 182.381 73.9291 179.666 78.4976 179.666C83.0661 179.666 86.776 182.37 86.776 185.701Z" fill="white"/>
<path id="Vector_100" d="M67.6964 188.886C67.6964 190.65 65.6824 192.081 63.202 192.081C60.7217 192.081 58.7078 190.65 58.7078 188.886C58.7078 187.121 60.7217 185.701 63.202 185.701C65.6824 185.701 67.6964 187.121 67.6964 188.886Z" fill="white"/>
<path id="Vector_101" d="M68.4172 185.701C70.8993 185.701 72.9114 184.271 72.9114 182.506C72.9114 180.741 70.8993 179.311 68.4172 179.311C65.935 179.311 63.9229 180.741 63.9229 182.506C63.9229 184.271 65.935 185.701 68.4172 185.701Z" fill="white"/>
<path id="Vector_102" d="M61.7604 187.57C64.2425 187.57 66.2547 186.14 66.2547 184.375C66.2547 182.61 64.2425 181.18 61.7604 181.18C59.2783 181.18 57.2661 182.61 57.2661 184.375C57.2661 186.14 59.2783 187.57 61.7604 187.57Z" fill="white"/>
<path id="Vector_103" d="M25.7743 195.975C25.7743 197.74 23.7604 199.17 21.28 199.17C18.7997 199.17 16.7751 197.74 16.7751 195.975C16.7751 194.211 18.7891 192.791 21.28 192.791C23.771 192.791 25.7743 194.211 25.7743 195.975Z" fill="white"/>
<path id="Vector_104" d="M36.7557 190.661C36.7557 192.028 34.816 193.146 32.431 193.146C30.0461 193.146 28.1169 192.028 28.1169 190.661C28.1169 189.293 30.0461 188.176 32.431 188.176C34.816 188.176 36.7557 189.293 36.7557 190.661Z" fill="white"/>
<path id="Vector_105" opacity="0.1" d="M109.597 193.156L109.332 193.219L89.0972 173.14L80.151 193.772L37.487 199.849L1.56445 211.073H128.115L123.61 208.609C123.61 208.609 117.028 201.206 109.597 193.156Z" fill="#141414"/>
</g>
</g>
</g>
<path id="Vector_106" d="M123.61 208.609C123.61 208.609 92.0969 173.109 89.0972 173.109C86.0975 173.109 15.5667 186.411 13.0652 189.815C10.5636 193.219 1.56445 211 1.56445 211H128.115L123.61 208.609Z" stroke="#263238" stroke-width="1.30949" stroke-linecap="round" stroke-linejoin="round"/>
</g>
</svg>
